<svg width="663" height="299" viewBox="0 0 663 299" fill="none" xmlns="http://www.w3.org/2000/svg">
<path d="M557.286 47.4686C571.031 49.4141 584.607 52.6063 597.863 57.0099C611.53 61.4133 624.562 67.8368 636.568 76.0885C639.626 78.2822 642.575 80.6432 645.402 83.1618L646.477 84.0989L647.604 85.2453L649.838 87.5656C651.289 89.1498 652.537 90.9506 653.852 92.6632C658.641 99.8659 661.572 108.249 662.351 116.973C663.131 125.697 661.731 134.455 658.293 142.371L657.678 143.845L656.937 145.254L655.43 148.056C654.319 149.848 653.121 151.594 651.866 153.271L649.824 155.653C649.163 156.463 648.445 157.218 647.675 157.912C646.264 159.285 644.787 160.58 643.249 161.793C620.044 180.422 593.999 194.238 567.697 205.711C550.133 213.421 532.26 220.031 514.386 226.274C505.449 229.403 496.488 232.365 487.539 235.419C478.576 238.417 469.563 241.271 460.577 244.205C424.539 255.652 388.09 265.898 351.202 274.398C314.279 283.012 276.915 289.492 239.276 293.81C201.527 298.139 163.499 299.601 125.483 298.184C122.554 298.161 119.629 297.88 116.702 297.715L107.923 297.125C102.066 296.704 96.233 296.391 90.3446 295.744C78.3175 294.686 66.3845 292.548 54.6747 289.355C48.6589 287.632 42.7723 285.421 37.0676 282.742C35.6317 282.058 34.196 281.374 32.7929 280.594C31.3268 279.859 29.9025 279.034 28.5277 278.121L24.2195 275.257C22.8587 274.184 21.5521 273.021 20.2273 271.895C18.8973 270.77 17.6542 269.535 16.5103 268.201C15.2838 266.952 14.1441 265.612 13.1003 264.19C12.0673 262.761 11.0193 261.342 10.0251 259.887L7.4179 255.263C4.21268 248.96 2.03697 242.14 0.983694 235.095C0.0800321 228.052 0.289009 220.913 1.60206 213.972C2.97756 207.031 5.51859 200.422 9.10526 194.456L11.9378 190.1C13.0008 188.753 14.1145 187.447 15.2125 186.13C15.757 185.504 16.3334 184.751 16.8548 184.235L18.4324 182.62L21.588 179.39C23.6984 177.246 25.779 175.066 27.9166 172.953L34.4317 166.731C43.109 158.423 52.2108 150.646 61.4289 143.044C66.1181 139.358 70.7883 135.64 75.5459 132.057L82.7476 126.78L86.3483 124.143L90.0178 121.615C109.532 108.085 129.826 95.8408 150.786 84.9509C171.719 74.1183 193.202 64.4915 215.142 56.1122C258.967 39.3468 304.168 27.0741 349.759 17.6471C377.273 11.9141 405.307 7.74423 432.744 4.22603C459.033 0.898444 476.237 0.448292 487.024 1.2812C494.877 1.8881 495.035 3.50925 488.61 5.67217C482.185 7.83509 469.171 10.5044 450.714 13.5156C427.356 17.3116 401.843 21.3317 377.806 25.6384C322.495 35.5593 267.829 49.3034 215.688 70.0915C163.647 90.8691 114.051 118.675 70.6323 154.808C58.7076 164.834 47.0551 175.692 35.9777 186.989C33.2426 189.849 30.5137 192.702 27.7909 195.549C26.5542 196.934 25.606 198.211 24.4795 199.52C23.4552 200.869 22.6365 202.368 21.6811 203.759C18.2965 209.581 16.2602 216.178 15.7359 223.02C15.38 228.432 15.9384 233.88 17.3852 239.109L17.9703 241.054C18.1351 241.712 18.3555 242.353 18.6289 242.97L20.2026 246.698L22.1683 250.208L22.6576 251.088L23.2489 251.893L24.4223 253.51C24.8162 254.047 25.1878 254.604 25.5947 255.13L26.9472 256.583C27.8012 257.601 28.7294 258.546 29.7231 259.411L32.7284 261.982L36.0289 264.142C37.1837 264.914 38.3848 265.603 39.6244 266.207C40.8623 266.898 42.1623 267.477 43.4426 268.093C46.0182 269.299 48.6745 270.345 51.3572 271.336C62.4561 275.048 73.8884 277.48 85.4528 278.587C97.2283 279.983 109.331 280.283 121.278 281.131C127.271 281.427 133.276 281.437 139.274 281.604L148.273 281.799C151.272 281.817 154.273 281.722 157.272 281.69L175.27 281.399L193.248 280.494C196.243 280.321 199.243 280.25 202.232 279.994L211.202 279.253C217.179 278.721 223.168 278.363 229.132 277.703C241.057 276.348 252.995 275.165 264.864 273.376C335.578 263.647 405.302 244.763 473.716 222.697C504.204 212.697 534.756 202.769 563.886 190.048C578.412 183.762 592.534 176.499 606.166 168.303C609.497 166.17 612.904 164.148 616.138 161.87C617.769 160.752 619.421 159.663 621.036 158.521L625.815 155.006C627.428 153.859 628.977 152.63 630.516 151.386C632.041 150.158 633.656 148.911 635.11 147.698C636.379 146.597 637.569 145.399 638.671 144.113C639.242 143.492 639.778 142.836 640.276 142.148L641.705 140.033C645.314 134.149 647.08 127.197 646.757 120.148C646.616 116.65 645.93 113.192 644.727 109.916C644.582 109.507 644.464 109.085 644.301 108.684L643.746 107.512C643.357 106.742 643.068 105.913 642.615 105.183L641.276 102.976C640.814 102.249 640.308 101.556 639.762 100.898C638.714 99.5326 637.571 98.2516 636.342 97.0662C634.974 95.8308 633.5 94.5573 632.043 93.3444C629.021 90.9486 625.874 88.737 622.616 86.7206C615.943 82.6479 608.957 79.1901 601.735 76.3858C586.965 70.7595 571.703 66.7632 556.192 64.4613C540.357 62.0002 524.475 59.9131 508.548 58.2001C483.137 55.5118 458.408 53.3138 434.641 51.7149C422.759 50.8858 411.119 50.2206 399.757 49.6401C388.394 48.9762 377.312 48.5614 366.547 48.1643C356.648 47.867 351.967 47.0074 352.627 45.8812C353.289 44.8009 359.293 43.32 370.783 42.285C404.357 39.2448 438.098 38.3481 471.825 39.5999C485.875 40.0232 500.092 41.1817 514.334 42.5864C528.576 44.0158 542.844 45.764 556.999 47.7422C557.088 47.6478 557.175 47.5621 557.286 47.4686Z" fill="#ED1C24" fill-opacity="0.7"/>
</svg>
